<?xml version="1.0" standalone="no"?>
<!DOCTYPE svg PUBLIC "-//W3C//DTD SVG 20010904//EN"
 "http://www.w3.org/TR/2001/REC-SVG-20010904/DTD/svg10.dtd">
<svg version="1.0" xmlns="http://www.w3.org/2000/svg"
 width="640.000000pt" height="640.000000pt" viewBox="0 0 640.000000 640.000000"
 preserveAspectRatio="xMidYMid meet">
<metadata>
Created by potrace 1.14, written by Peter Selinger 2001-2017
</metadata>
<g transform="translate(0.000000,640.000000) scale(0.100000,-0.100000)"
fill="#000000" stroke="none">
<path d="M2920 6386 c0 -8 -7 -16 -15 -20 -8 -3 -14 -9 -13 -13 1 -4 -3 -18
-10 -31 -10 -16 -19 -21 -33 -17 -11 4 -19 2 -19 -4 0 -6 5 -11 10 -11 6 0 10
-5 10 -11 0 -6 -8 -8 -19 -4 -14 4 -20 0 -25 -17 -3 -13 -1 -24 4 -26 15 -5
12 -38 -5 -52 -12 -10 -16 -9 -21 4 -3 9 -10 16 -14 16 -8 0 -101 -116 -126
-157 -7 -10 -15 -15 -19 -11 -11 10 15 68 43 98 27 29 46 60 36 60 -4 0 -23
-12 -43 -27 -20 -16 -68 -49 -107 -74 -40 -26 -75 -52 -78 -58 -10 -15 -26
-14 -26 2 0 19 171 166 238 205 27 15 52 16 52 1 0 -7 14 5 30 26 21 26 27 42
20 49 -7 7 -16 3 -30 -12 -12 -12 -31 -22 -44 -22 -13 0 -34 -11 -47 -25 -13
-13 -29 -25 -35 -25 -17 0 -64 -24 -64 -33 0 -5 -9 -5 -20 -2 -12 4 -27 2 -34
-4 -10 -8 -20 -5 -40 14 -31 28 -41 31 -53 12 -10 -16 -76 -57 -92 -57 -24 0
-186 -82 -269 -136 -103 -67 -274 -235 -301 -297 -31 -70 -71 -181 -71 -200 0
-32 17 -17 29 26 18 62 47 121 88 180 51 71 91 108 160 143 32 17 109 58 171
91 123 67 242 117 242 102 0 -5 -31 -40 -69 -78 -78 -77 -194 -140 -294 -162
-77 -17 -82 -29 -10 -29 80 0 186 24 240 55 26 14 49 23 52 20 3 -3 -2 -20
-11 -38 -8 -18 -20 -44 -26 -59 -14 -33 -52 -50 -182 -83 l-95 -25 106 2 c108
2 137 -5 121 -25 -8 -10 -32 -69 -67 -162 -4 -11 -9 -40 -10 -65 -1 -25 -12
-67 -23 -95 -41 -97 -108 -398 -95 -431 9 -25 -20 -56 -80 -84 -47 -22 -56
-29 -37 -29 22 -1 20 -4 -19 -26 -52 -30 -54 -30 -46 -5 4 14 2 20 -8 20 -16
0 -38 -49 -42 -92 -2 -24 -1 -25 17 -15 14 9 17 19 13 37 -5 20 -4 22 6 13 9
-9 21 -7 54 12 23 14 53 24 66 24 13 -1 37 3 52 10 37 14 43 10 51 -37 3 -21
17 -55 30 -75 31 -45 31 -46 22 -138 -5 -42 -9 -107 -10 -144 -1 -67 -2 -69
-31 -77 -52 -14 -132 2 -192 38 -30 19 -57 34 -59 34 -13 0 2 -20 37 -49 47
-39 162 -81 221 -81 32 0 45 -6 66 -31 15 -17 44 -47 65 -67 46 -43 48 -62 6
-62 -47 0 -30 -24 19 -28 23 -2 42 -8 42 -13 0 -12 -102 -59 -128 -59 -21 0
-48 -17 -40 -25 13 -13 177 -17 227 -5 61 14 118 6 125 -18 2 -9 1 -57 -2
-107 l-7 -90 -46 2 c-26 0 -58 9 -73 18 -14 10 -26 13 -26 7 0 -11 69 -40 120
-51 26 -5 35 -14 45 -45 21 -59 34 -67 32 -17 l-2 42 127 5 c122 4 127 4 142
-18 9 -12 16 -29 16 -36 0 -22 58 -99 96 -128 31 -24 37 -25 50 -13 12 13 11
20 -14 60 -48 75 -55 134 -21 162 12 9 16 17 10 17 -21 0 -11 35 14 47 32 14
43 -1 19 -28 -16 -18 -16 -19 3 -19 52 0 240 85 272 124 16 19 31 21 31 3 0
-30 -65 -110 -119 -144 -61 -40 -52 -56 15 -28 50 21 157 45 199 45 39 0 55
-18 32 -35 -10 -7 -17 -15 -17 -19 0 -13 20 -5 44 19 14 14 32 25 41 25 20 0
172 53 213 74 44 23 52 20 53 -16 1 -18 4 -44 9 -58 7 -24 7 -23 15 13 4 20 4
50 1 65 -20 79 -20 82 6 82 13 0 29 5 34 10 12 12 64 -4 76 -23 6 -9 8 -9 8 0
0 6 -10 19 -22 28 -16 12 -19 19 -10 22 7 3 19 11 26 19 8 8 19 14 25 14 6 0
11 4 11 9 0 5 15 18 33 30 48 31 21 25 -32 -7 -25 -15 -64 -36 -86 -46 -22
-11 -51 -27 -65 -36 -14 -9 -62 -23 -107 -30 -80 -12 -83 -12 -135 14 -29 14
-78 46 -108 71 -30 24 -94 65 -142 91 -114 61 -213 144 -255 215 -36 60 -103
234 -110 286 -5 30 -3 32 31 38 20 4 39 11 42 16 5 9 -2 13 -48 23 -21 5 -35
20 -57 64 -16 32 -26 63 -23 69 12 19 36 18 65 -1 36 -24 43 -16 28 34 -30
102 72 175 109 78 l13 -33 6 35 c9 46 18 60 40 60 27 0 48 -46 33 -70 -7 -11
-12 -24 -12 -30 0 -16 42 -12 54 6 11 14 16 14 49 -6 l37 -22 10 27 c16 41 13
52 -26 95 l-36 39 53 26 c29 14 58 25 65 25 6 0 14 7 18 15 13 34 24 11 24
-54 1 -50 7 -81 24 -116 13 -26 27 -48 32 -49 5 0 9 35 10 79 1 62 7 91 25
130 34 72 99 172 125 192 12 10 34 40 50 67 15 26 37 57 47 67 22 22 41 17 32
-8 -4 -11 1 -9 16 6 19 19 31 22 69 18 54 -5 79 -11 87 -18 6 -6 -21 -74 -58
-147 -27 -53 -104 -137 -134 -146 -13 -4 -23 -12 -23 -17 0 -5 -6 -9 -14 -9
-19 0 -76 -33 -76 -43 0 -13 60 3 103 26 37 21 39 21 49 3 9 -17 11 -17 33 4
22 20 102 46 112 36 3 -2 -3 -16 -12 -30 -12 -18 -15 -34 -10 -53 l8 -28 8 28
c15 56 52 73 92 43 20 -15 24 -37 13 -77 -6 -19 -3 -28 8 -32 20 -8 43 1 50
19 7 18 40 18 56 -1 7 -8 25 -15 41 -15 22 0 29 5 29 20 0 30 26 24 40 -10 7
-16 16 -27 21 -24 15 9 31 -6 21 -19 -5 -7 -13 -22 -17 -35 -4 -13 -27 -57
-51 -99 -25 -41 -43 -77 -40 -80 7 -8 59 24 101 63 22 20 41 31 43 26 5 -16
-24 -57 -107 -154 -79 -92 -201 -262 -201 -279 0 -5 -7 -24 -17 -42 -9 -17
-26 -70 -38 -117 -12 -47 -25 -93 -29 -102 -6 -13 -4 -18 7 -18 18 0 41 34 51
73 7 31 49 101 66 112 26 16 5 -58 -27 -93 -17 -18 -16 -32 2 -32 8 0 15 5 15
10 0 6 5 10 10 10 13 0 3 -46 -16 -76 -7 -12 -9 -25 -4 -30 10 -11 -16 -152
-31 -171 -7 -7 -9 -16 -6 -20 9 -8 49 19 92 63 l35 35 29 -29 c31 -31 87 -59
98 -49 3 4 -2 23 -12 44 -31 64 -36 103 -17 132 9 14 12 22 5 18 -31 -19 -16
20 47 119 38 60 81 133 96 162 17 31 31 49 37 43 5 -5 1 -22 -9 -42 -23 -43
-24 -52 -24 -183 1 -81 5 -117 17 -137 23 -39 10 -73 -50 -134 -57 -57 -122
-94 -208 -119 -31 -9 -64 -23 -75 -31 -17 -13 -15 -14 31 -14 28 0 67 3 88 8
47 11 136 70 204 134 l51 50 51 -44 c28 -24 51 -48 51 -54 0 -5 -19 -21 -41
-34 -54 -30 -201 -142 -195 -148 4 -5 177 95 186 108 3 3 28 20 55 37 48 29
55 31 120 25 48 -4 97 0 154 12 91 18 84 19 226 -27 85 -27 98 -39 157 -128
28 -44 53 -78 55 -76 12 11 -84 152 -167 246 -30 34 -31 37 -26 110 10 129
-22 325 -59 370 -7 8 -15 27 -19 43 -8 35 -21 34 -35 -2 -11 -25 -77 -93 -253
-260 -40 -37 -46 -41 -41 -20 4 13 12 35 20 49 7 14 13 30 13 36 0 6 7 17 15
24 8 7 15 16 15 21 0 11 -34 12 -44 2 -4 -4 -15 -8 -24 -8 -9 0 -31 -25 -52
-60 -54 -93 -78 -122 -112 -139 -29 -15 -30 -15 -16 1 9 10 26 41 39 68 12 28
42 79 66 114 24 35 43 68 43 74 0 5 16 29 35 53 50 61 43 71 -16 24 -49 -39
-126 -80 -148 -80 -20 0 -11 15 17 27 15 7 37 27 49 45 12 18 45 60 72 92 28
33 58 75 67 95 9 20 26 47 39 61 32 36 93 195 126 330 30 121 36 170 19 170
-15 0 -30 -45 -45 -136 -7 -45 -17 -90 -23 -100 -5 -11 -12 -34 -15 -52 -6
-28 -65 -102 -83 -102 -4 0 -26 -12 -50 -27 -43 -28 -60 -54 -66 -103 -4 -35
-33 -33 -33 3 1 15 -5 27 -12 27 -17 0 -52 -39 -67 -75 -14 -32 -43 -61 -52
-52 -3 3 7 28 22 56 14 29 24 54 21 57 -2 3 -21 -17 -40 -44 -42 -56 -108
-118 -212 -197 -51 -40 -85 -58 -92 -51 -9 9 7 25 55 57 26 17 108 94 183 170
l136 139 12 73 c10 59 19 84 49 123 64 85 83 61 31 -39 -28 -54 -29 -59 -9
-42 12 11 33 39 47 63 20 34 23 45 13 57 -6 8 -9 18 -6 24 3 5 1 11 -5 13 -14
5 12 101 42 160 18 35 29 42 84 50 16 3 22 16 32 68 18 101 27 290 15 290 -6
0 -16 -19 -22 -42 -21 -85 -65 -186 -76 -175 -2 1 4 23 12 47 33 93 65 228 74
307 9 81 2 141 -15 135 -5 -2 -19 36 -32 83 -13 48 -29 101 -37 119 -8 17 -20
48 -27 69 -7 20 -17 37 -21 37 -10 0 -10 -15 3 -70 10 -42 39 -250 39 -276 0
-7 -12 -24 -26 -38 -18 -16 -24 -28 -18 -37 4 -8 7 -28 5 -46 -1 -20 2 -33 9
-33 7 0 11 15 10 38 -1 20 -1 46 0 57 4 32 17 -33 19 -87 1 -37 -3 -48 -14
-48 -10 0 -15 -10 -15 -30 0 -16 -4 -30 -10 -30 -5 0 -10 7 -10 16 0 8 -5 12
-10 9 -19 -12 -24 27 -5 41 18 13 10 19 -17 15 -8 -1 -10 6 -28 114 -27 168
-65 321 -82 331 -8 5 -9 -3 -4 -27 22 -97 25 -120 26 -186 0 -40 5 -75 11 -78
6 -4 8 -13 5 -21 -3 -7 2 -48 10 -91 10 -51 13 -107 10 -162 -6 -86 -15 -121
-17 -60 -2 64 -12 84 -44 84 -22 0 -31 5 -33 20 -2 11 -10 25 -18 31 -13 10
-12 12 1 18 9 3 16 16 15 28 -3 37 -1 50 9 44 11 -7 25 -73 22 -103 -1 -13 2
-23 7 -23 14 0 22 84 12 121 -6 19 -10 49 -10 66 0 18 -4 33 -10 33 -5 0 -10
-9 -10 -19 0 -25 -20 -38 -21 -14 0 12 -2 13 -6 5 -3 -9 -12 -3 -24 17 -10 17
-23 31 -29 31 -17 0 -12 -60 6 -67 12 -4 13 -8 3 -14 -14 -9 -17 -61 -7 -129
4 -25 4 -36 1 -25 -3 11 -12 24 -20 28 -11 7 -13 19 -8 48 4 22 3 45 -3 52 -5
7 -12 71 -15 142 -11 254 -42 442 -100 595 l-32 85 -60 3 c-56 3 -58 2 -44
-15 15 -16 49 -80 49 -90 0 -9 -65 61 -75 81 -13 27 -95 37 -95 12 0 -9 7 -16
15 -16 9 0 19 -8 22 -17 4 -10 35 -45 70 -79 35 -33 71 -76 81 -95 10 -19 36
-65 56 -102 30 -52 39 -80 40 -120 1 -35 -3 -52 -11 -53 -7 -1 -20 -2 -28 -3
-8 0 -19 -19 -25 -43 -21 -85 -24 -87 -49 -32 -13 27 -26 58 -31 69 -36 88
-65 145 -77 149 -19 8 -16 -7 7 -37 11 -14 20 -30 20 -36 0 -7 7 -23 16 -37 9
-14 20 -43 24 -66 l8 -40 -50 6 c-41 6 -54 3 -79 -15 -17 -12 -32 -20 -33 -18
-2 2 -9 14 -15 27 -6 12 -21 22 -31 22 -11 0 -20 4 -20 8 0 5 -11 14 -25 20
-14 6 -25 18 -25 27 0 8 -4 23 -9 33 -34 64 -50 119 -32 108 16 -10 21 25 7
40 -13 12 -16 12 -25 -3 -8 -15 -10 -14 -17 11 -4 17 -2 36 5 47 14 23 15 66
1 74 -5 3 -10 12 -10 18 0 8 3 8 8 2 7 -10 42 -17 42 -9 0 2 -9 13 -20 24 -11
11 -20 31 -20 45 0 28 15 34 24 9 4 -10 13 -13 27 -9 15 5 22 2 26 -14 5 -21
27 -27 57 -15 20 8 20 33 0 62 -14 21 -14 25 0 47 l16 25 -101 0 c-92 0 -101
-2 -94 -17 24 -63 35 -246 15 -258 -22 -14 -11 -111 20 -173 17 -34 30 -69 30
-80 0 -27 -34 -54 -62 -50 -23 3 -22 5 -80 -114 -4 -10 -8 -24 -8 -33 0 -15
-34 -80 -55 -105 -24 -28 -62 -115 -80 -182 -10 -38 -22 -68 -27 -68 -18 0
-18 29 0 61 36 64 12 63 -49 -3 -32 -35 -59 -58 -59 -53 0 6 29 41 65 79 36
37 65 72 65 76 0 14 90 162 121 198 17 20 39 80 39 105 0 34 -18 48 -42 34
-15 -10 -20 -9 -28 3 -7 11 -8 72 -1 113 0 4 10 7 21 7 11 0 20 5 20 11 0 20
28 -10 35 -38 8 -32 18 -23 21 20 6 79 14 145 20 182 10 58 7 102 -12 157 -9
27 -14 61 -11 76 9 47 1 52 -85 52 l-80 0 6 -26 c4 -15 9 -40 12 -58 3 -17 8
-38 11 -46 7 -18 4 -153 -3 -193 -3 -15 -10 -25 -15 -21 -5 3 -9 -4 -9 -15 0
-12 -5 -21 -11 -21 -14 0 -3 63 11 68 12 4 14 152 3 152 -5 0 -8 -26 -8 -57 0
-32 -7 -72 -15 -90 l-14 -31 -23 26 -24 27 -23 -27 c-27 -30 -66 -29 -66 2 0
29 26 43 71 37 56 -7 74 13 82 93 6 49 4 67 -8 80 -8 9 -15 25 -15 36 1 19 1
19 15 0 20 -26 32 -12 16 18 -8 13 -10 29 -7 35 4 6 2 11 -4 11 -6 0 -16 -13
-21 -30 -6 -16 -15 -30 -20 -30 -5 0 -14 -12 -20 -27 -6 -16 -13 -23 -16 -16
-2 6 7 30 21 52 14 22 26 43 26 46 0 3 -26 5 -57 5 -54 -1 -59 -3 -78 -33 -11
-18 -33 -73 -50 -122 -16 -50 -32 -92 -35 -95 -3 -3 -5 -23 -6 -45 0 -39 -19
-165 -30 -211 -4 -13 -2 -24 3 -24 5 0 19 39 31 86 19 77 30 105 71 181 5 10
13 27 16 38 l7 20 8 -20 c7 -20 5 -33 -10 -70 -18 -44 -18 -80 2 -122 19 -41
19 -45 4 -81 -27 -60 -33 -67 -52 -64 -22 4 -30 3 -64 -1 -21 -3 -27 -13 -41
-63 -9 -33 -20 -117 -24 -187 -12 -206 -28 -162 -29 78 0 11 3 41 7 66 6 46 6
47 -23 51 -16 3 -34 0 -40 -6 -14 -14 -13 -2 4 64 7 30 21 89 30 130 26 113
43 162 82 243 8 16 14 37 14 47 0 11 9 42 20 70 11 28 20 55 20 60 0 6 -59 10
-145 10 -117 0 -145 -3 -145 -14z m106 -98 c-3 -7 -7 -25 -10 -40 -4 -16 -12
-28 -20 -28 -17 0 -51 38 -42 48 4 4 13 -1 20 -11 18 -24 29 -21 22 7 -3 12
-3 26 1 30 11 11 33 6 29 -6z m414 -3 c0 -8 -7 -15 -15 -15 -8 0 -15 -5 -15
-11 0 -6 9 -9 20 -6 22 6 26 -3 8 -21 -6 -6 -12 -28 -12 -48 -2 -41 -20 -57
-29 -24 -5 21 -41 28 -52 10 -11 -17 -25 -11 -25 10 0 32 26 74 54 90 14 7 26
17 26 22 0 4 9 8 20 8 11 0 20 -7 20 -15z m161 -73 c7 -31 17 -60 21 -63 5 -3
10 -41 11 -85 2 -75 1 -79 -20 -82 -13 -2 -23 1 -23 7 0 6 6 10 13 9 16 -4 17
84 0 89 -8 3 -10 -8 -6 -38 4 -30 3 -40 -5 -35 -7 4 -12 2 -12 -3 0 -6 -4 -11
-10 -11 -5 0 -10 25 -10 55 0 30 4 55 8 55 12 0 11 124 -1 131 -13 9 0 42 12
34 5 -3 15 -31 22 -63z m-1141 -45 c0 -16 -9 -26 -30 -34 -17 -7 -30 -7 -30
-2 0 5 7 12 15 15 8 3 17 14 20 25 9 26 25 24 25 -4z m545 -7 c4 -12 1 -28 -6
-36 -15 -19 1 -37 25 -28 11 4 15 13 10 26 -4 15 -3 18 7 13 9 -6 11 -4 6 8
-3 8 0 18 8 21 10 3 12 -4 9 -29 -2 -19 0 -37 6 -40 13 -8 13 -25 0 -25 -5 0
-10 7 -10 15 0 8 -4 15 -10 15 -5 0 -10 -6 -10 -14 0 -9 -7 -12 -19 -9 -25 6
-36 -13 -17 -32 27 -27 33 -106 6 -90 -5 3 -14 -4 -20 -15 -14 -27 -36 -25
-44 4 -3 13 -17 31 -31 40 -22 15 -27 15 -40 2 -16 -16 -66 -8 -72 11 -4 12
-1 15 83 88 31 28 67 60 78 71 27 28 33 28 41 4z m-665 -40 c-13 -9 -13 -11 0
-20 12 -7 8 -10 -15 -10 -16 0 -39 -7 -49 -15 -22 -17 -66 -20 -66 -6 0 5 9
13 20 16 11 3 20 11 20 16 0 5 7 9 16 9 8 0 12 -4 9 -10 -3 -5 -1 -10 4 -10 6
0 11 9 11 20 0 16 7 20 33 20 24 0 28 -3 17 -10z m276 -49 c-9 -10 -16 -22
-16 -27 0 -15 -64 -67 -68 -55 -5 15 78 112 90 105 5 -3 2 -14 -6 -23z m-396
-30 c0 -6 -49 -31 -62 -31 -4 0 -8 5 -8 10 0 6 6 10 14 10 8 0 16 7 20 15 5
14 36 11 36 -4z m315 -17 c-19 -18 -24 -30 -20 -45 6 -19 4 -20 -24 -14 -20 4
-31 3 -31 -4 0 -6 7 -11 16 -11 14 0 14 -3 4 -15 -7 -8 -18 -15 -25 -15 -8 0
-16 -6 -19 -12 -5 -10 -7 -10 -12 0 -9 20 -26 14 -19 -8 7 -22 -34 -74 -77
-96 -24 -13 -28 -13 -28 0 0 8 9 21 20 29 11 8 18 20 15 28 -2 8 4 25 15 39
16 20 20 22 20 8 0 -10 -4 -18 -10 -18 -5 0 -10 -7 -10 -17 0 -15 2 -15 19 1
11 10 17 25 14 36 -4 13 8 27 46 51 28 19 51 37 51 41 0 5 6 8 13 8 6 1 21 12
32 25 10 13 23 21 28 18 4 -2 -4 -16 -18 -29z m860 6 c-3 -5 -10 -10 -16 -10
-5 0 -9 5 -9 10 0 6 7 10 16 10 8 0 12 -4 9 -10z m-625 -9 c0 -12 -20 -25 -27
-18 -7 7 6 27 18 27 5 0 9 -4 9 -9z m-40 -40 c0 -5 -10 -11 -22 -14 -18 -5
-19 -8 -8 -21 15 -19 0 -22 -18 -4 -9 9 -7 17 10 35 19 21 38 23 38 4z m750
-49 c0 -7 -4 -10 -10 -7 -5 3 -10 -1 -10 -9 0 -8 -9 -20 -20 -26 -11 -6 -20
-17 -20 -25 0 -8 -9 -30 -21 -49 -25 -42 -54 -47 -71 -11 -9 20 -7 35 12 83
l23 59 59 -1 c41 -1 58 -5 58 -14z m-845 -37 c-42 -25 -48 -34 -47 -64 0 -17
-3 -31 -8 -31 -5 0 -18 -9 -29 -21 -25 -27 -44 -17 -31 17 13 32 13 44 0 44
-5 0 -10 -7 -10 -15 0 -8 -7 -15 -16 -15 -14 0 -14 2 -3 16 23 28 97 74 119
74 14 0 24 8 28 23 6 20 6 21 10 2 3 -11 -3 -24 -13 -30z m-125 5 c-11 -21
-90 -83 -97 -77 -9 10 13 40 50 67 48 35 62 38 47 10z m170 -25 c0 -15 -6 -25
-14 -25 -7 0 -19 -7 -26 -15 -8 -10 -17 -12 -23 -6 -13 13 0 31 24 31 12 0 19
7 19 20 0 11 5 20 10 20 6 0 10 -11 10 -25z m260 1 c0 -7 -7 -19 -15 -26 -8
-7 -15 -21 -15 -31 0 -10 -6 -22 -13 -26 -15 -10 -67 -79 -67 -90 0 -4 -10
-19 -23 -33 -27 -29 -90 -125 -125 -190 -28 -52 -42 -70 -42 -51 0 32 160 304
243 412 37 49 57 61 57 35z m-140 -40 c0 -3 -4 -8 -10 -11 -5 -3 -10 -1 -10 4
0 6 5 11 10 11 6 0 10 -2 10 -4z m46 -23 c-10 -10 -19 5 -10 18 6 11 8 11 12
0 2 -7 1 -15 -2 -18z m-386 -3 c0 -5 -5 -10 -11 -10 -5 0 -7 5 -4 10 3 6 8 10
11 10 2 0 4 -4 4 -10z m1000 0 c0 -5 -2 -10 -4 -10 -3 0 -8 5 -11 10 -3 6 -1
10 4 10 6 0 11 -4 11 -10z m-1025 -38 c0 -9 -9 -22 -20 -29 -33 -20 -40 -15
-16 11 23 24 23 25 2 19 -28 -7 -27 5 2 16 25 10 32 6 32 -17z m45 -2 c-24
-15 -31 -11 -18 10 9 13 16 16 23 9 7 -7 5 -13 -5 -19z m-120 -20 c0 -12 -28
-25 -36 -17 -9 9 6 27 22 27 8 0 14 -5 14 -10z m1484 -57 c15 -31 34 -94 43
-139 14 -73 14 -88 2 -121 -14 -37 -16 -38 -71 -41 -41 -2 -60 1 -72 13 -15
15 -17 15 -32 1 -19 -20 -24 -20 -24 -2 0 13 65 115 80 126 13 10 30 74 30
115 0 41 9 105 16 105 1 0 14 -25 28 -57z m-1526 27 c4 -10 -3 -12 -26 -7 -17
4 -34 2 -37 -3 -7 -12 -35 -13 -35 -2 0 9 68 31 84 28 6 -1 12 -8 14 -16z m15
-36 c5 -6 -27 -55 -58 -90 -5 -6 -21 -24 -35 -40 -21 -25 -25 -26 -28 -11 -2
10 11 35 30 56 18 21 42 50 52 64 19 27 28 32 39 21z m187 -11 c0 -5 -9 -39
-20 -78 l-19 -70 5 65 c3 36 7 71 9 78 5 13 25 17 25 5z m-284 -38 c-8 -8 -18
-15 -22 -15 -3 0 -1 7 6 15 7 8 17 15 22 15 5 0 3 -7 -6 -15z m144 -47 c0 -6
-7 -5 -15 2 -8 7 -15 17 -15 22 0 6 7 5 15 -2 8 -7 15 -17 15 -22z m-36 -27
c-8 -9 -22 12 -17 26 6 15 7 14 13 -3 4 -10 6 -21 4 -23z m2076 29 c0 -5 -2
-10 -4 -10 -3 0 -8 5 -11 10 -3 6 -1 10 4 10 6 0 11 -4 11 -10z m-2008 -61
c-5 -33 -34 -99 -44 -99 -4 0 -8 -9 -8 -20 0 -11 -11 -43 -24 -72 -14 -29 -34
-73 -45 -98 -25 -56 -28 -27 -5 57 8 32 17 69 20 83 3 14 14 40 25 58 22 38
24 58 7 65 -7 2 -10 8 -6 12 4 4 14 0 23 -9 22 -22 28 -20 22 5 -4 16 -2 19
10 15 12 -5 14 -1 10 14 -3 14 -1 20 6 17 7 -2 11 -15 9 -28z m1891 -19 c-7
-28 -13 -25 -13 6 0 14 4 23 9 20 5 -3 7 -15 4 -26z m-2023 10 c8 -5 11 -10 5
-10 -5 0 -17 5 -25 10 -8 5 -10 10 -5 10 6 0 17 -5 25 -10z m1804 -84 c-28
-65 -55 -100 -65 -85 -5 8 0 27 13 47 11 18 30 52 41 75 27 55 37 23 11 -37z
m556 -10 c0 -25 -5 -48 -10 -51 -6 -4 -7 -12 -4 -18 5 -9 4 -9 -6 0 -9 8 -10
23 -5 50 5 21 7 44 6 51 -1 6 3 12 9 12 5 0 10 -20 10 -44z m-340 8 c0 -14 -5
-24 -11 -22 -6 2 -10 7 -10 11 1 4 1 14 1 22 0 8 5 15 10 15 6 0 10 -12 10
-26z m-1803 -6 c-3 -8 -6 -5 -6 6 -1 11 2 17 5 13 3 -3 4 -12 1 -19z m-321
-55 c-10 -10 -19 5 -10 18 6 11 8 11 12 0 2 -7 1 -15 -2 -18z m104 9 c0 -18
-33 -118 -42 -129 -5 -7 -7 -25 -4 -40 8 -35 -16 -108 -35 -108 -11 0 -14 18
-14 80 1 75 3 84 39 143 33 55 56 77 56 54z m202 -129 c-4 -106 -13 -141 -25
-90 -7 30 -1 165 8 201 14 52 21 5 17 -111z m1660 70 c57 -110 62 -133 42
-192 -9 -28 -18 -51 -21 -51 -21 0 -63 34 -63 51 0 18 -4 20 -27 15 -16 -4
-35 -8 -43 -8 -23 -1 -110 19 -117 26 -4 4 32 46 79 94 47 48 91 97 97 110 7
12 13 22 15 22 2 0 19 -30 38 -67z m298 52 c0 -8 -2 -15 -4 -15 -2 0 -6 7 -10
15 -3 8 -1 15 4 15 6 0 10 -7 10 -15z m167 -75 c-2 -17 -5 -20 -9 -10 -25 62
-29 80 -21 93 9 15 34 -54 30 -83z m-597 22 c0 -10 -90 -102 -100 -102 -4 0
-12 10 -19 23 -11 21 -11 20 -6 -6 6 -31 -8 -57 -31 -57 -20 0 -17 24 7 77
l21 47 18 -24 18 -24 36 37 c34 35 56 47 56 29z m-690 -10 c0 -13 -101 -112
-113 -112 -7 0 15 27 48 59 65 65 65 65 65 53z m610 -13 c0 -6 -4 -7 -10 -4
-5 3 -10 11 -10 16 0 6 5 7 10 4 6 -3 10 -11 10 -16z m-506 3 c7 -12 -18 -58
-64 -117 -21 -27 -42 -62 -45 -77 -4 -16 -13 -28 -21 -28 -8 0 -14 -4 -14 -9
0 -12 -50 -44 -57 -37 -6 6 35 46 46 46 4 0 11 8 16 18 13 23 42 71 83 135 17
28 32 57 32 64 0 14 16 18 24 5z m1163 -54 c-3 -7 -5 -2 -5 12 0 14 2 19 5 13
2 -7 2 -19 0 -25z m-231 -50 c-3 -35 -17 -96 -32 -137 -21 -59 -24 -78 -15
-93 6 -10 11 -31 11 -47 0 -24 -3 -28 -20 -24 -11 3 -20 0 -20 -6 0 -6 5 -11
10 -11 16 0 12 -27 -5 -34 -8 -3 -15 -12 -15 -21 0 -8 -4 -15 -10 -15 -5 0
-10 -6 -10 -14 0 -17 -49 -51 -58 -40 -4 4 -1 9 6 11 6 3 12 11 12 19 0 8 4
22 9 32 24 45 51 114 51 129 0 10 16 69 35 132 19 62 35 126 35 141 0 24 7 40
17 40 2 0 1 -28 -1 -62z m-109 20 c-3 -8 -6 -5 -6 6 -1 11 2 17 5 13 3 -3 4
-12 1 -19z m-1159 -18 c7 -12 8 -20 2 -20 -5 0 -10 -4 -10 -10 0 -5 7 -10 17
-10 15 0 15 -2 -1 -19 -10 -11 -31 -25 -47 -31 -16 -7 -29 -16 -29 -20 0 -11
-60 -18 -66 -8 -3 4 14 31 38 60 24 29 48 58 53 65 15 18 28 16 43 -7z m1503
-68 c-17 -33 -35 -63 -41 -67 -6 -3 6 25 27 64 20 39 38 69 40 67 3 -2 -9 -31
-26 -64z m-756 28 c-6 -9 -9 -9 -16 1 -10 17 0 34 13 21 6 -6 7 -16 3 -22z
m-381 -19 c-5 -23 -11 -30 -21 -26 -11 4 -13 1 -9 -11 10 -26 -36 -155 -48
-135 -10 15 5 111 17 111 6 0 7 3 4 6 -3 4 -1 16 5 28 11 20 50 64 56 61 1 -1
-1 -16 -4 -34z m-1284 -24 l12 -54 -47 -71 c-26 -40 -54 -72 -61 -72 -16 0
-19 41 -5 56 5 5 14 27 21 49 25 81 52 145 59 145 4 0 14 -24 21 -53z m567 11
c-3 -7 -5 -2 -5 12 0 14 2 19 5 13 2 -7 2 -19 0 -25z m-390 -10 c-3 -8 -6 -5
-6 6 -1 11 2 17 5 13 3 -3 4 -12 1 -19z m1003 7 c-7 -9 -15 -13 -17 -11 -7 7
7 26 19 26 6 0 6 -6 -2 -15z m-860 -52 c0 -12 -4 -25 -10 -28 -6 -4 -10 11
-10 37 0 31 3 39 10 28 5 -8 10 -25 10 -37z m1740 -35 c0 -16 -4 -28 -9 -28
-12 0 -24 56 -15 71 10 16 24 -9 24 -43z m-1124 0 c-18 -26 -22 -17 -5 14 6
11 13 17 16 15 3 -3 -2 -16 -11 -29z m-549 0 c-3 -8 -6 -5 -6 6 -1 11 2 17 5
13 3 -3 4 -12 1 -19z m443 12 c0 -5 -5 -10 -11 -10 -5 0 -7 5 -4 10 3 6 8 10
11 10 2 0 4 -4 4 -10z m-73 -27 c-9 -9 -20 -13 -24 -9 -4 4 1 14 11 22 25 18
35 8 13 -13z m-106 -22 c-7 -11 -9 -31 -5 -44 4 -17 1 -26 -10 -30 -11 -5 -16
0 -16 14 0 25 28 94 36 86 3 -3 1 -15 -5 -26z m1524 -11 c0 -7 -6 -15 -12 -17
-8 -3 -13 4 -13 17 0 13 5 20 13 18 6 -3 12 -11 12 -18z m-1554 -117 c-9 -16
-10 -14 -11 12 0 21 3 26 11 18 8 -8 8 -16 0 -30z m-638 -60 c-4 -16 -7 -40
-7 -55 1 -34 -21 -37 -30 -5 -13 51 -1 87 31 87 10 0 11 -8 6 -27z m664 2 c-9
-19 -13 -21 -15 -9 -3 13 12 33 25 34 0 0 -4 -11 -10 -25z m-475 -66 c10 -7
17 -169 6 -169 -3 0 -8 -10 -10 -22 -4 -32 -39 -34 -67 -4 -29 30 -23 62 17
103 25 25 28 34 26 93 -2 57 -1 61 8 35 6 -16 15 -33 20 -36z m85 9 c-3 -8 -6
-5 -6 6 -1 11 2 17 5 13 3 -3 4 -12 1 -19z m343 3 c0 -6 -4 -13 -10 -16 -5 -3
-10 1 -10 9 0 9 5 16 10 16 6 0 10 -4 10 -9z m20 -51 c0 -5 -2 -10 -4 -10 -3
0 -8 5 -11 10 -3 6 -1 10 4 10 6 0 11 -4 11 -10z m-5 -70 c3 -5 1 -10 -4 -10
-6 0 -11 5 -11 10 0 6 2 10 4 10 3 0 8 -4 11 -10z m-545 -145 c16 -8 35 -14
42 -13 38 9 2 -77 -49 -115 -43 -33 -57 -16 -49 60 9 91 10 92 56 68z m2257
-23 c6 -4 10 -25 10 -47 -2 -30 -6 -40 -18 -39 -9 1 -34 -26 -60 -65 -31 -47
-44 -61 -47 -48 -2 10 4 29 13 43 10 16 14 35 11 50 -8 29 15 77 46 98 25 18
28 19 45 8z m-1787 -54 c0 -20 -59 -118 -71 -118 -13 0 -4 28 27 85 25 44 44
58 44 33z m-328 -112 c-4 -28 -46 -134 -70 -171 -10 -17 -13 -18 -21 -5 -5 8
-19 26 -31 40 -33 38 -50 74 -40 89 10 17 130 78 150 77 10 -1 14 -10 12 -30z
m2528 -42 c0 -19 -4 -25 -15 -20 -12 4 -14 0 -9 -19 7 -29 1 -31 -24 -7 -18
16 -18 18 7 44 33 34 41 35 41 2z m-91 -86 c11 -10 14 -10 18 0 3 6 16 12 30
12 24 0 25 -2 19 -37 -3 -21 -6 -46 -6 -55 0 -10 -7 -18 -16 -18 -12 0 -15 6
-10 25 6 22 3 25 -19 25 -27 0 -35 -24 -10 -34 8 -3 15 -10 15 -16 0 -5 -7
-10 -15 -10 -8 0 -15 7 -15 15 0 8 -4 15 -10 15 -14 0 -13 33 2 48 9 9 8 12
-6 12 -20 0 -45 -27 -46 -47 0 -7 7 -13 15 -13 8 0 15 -7 15 -15 0 -20 -17
-19 -29 3 -9 15 -13 15 -31 4 -36 -22 -31 -9 18 45 50 55 60 60 81 41z m-456
-48 c-27 -49 -43 -62 -43 -37 0 17 49 87 61 87 6 0 -2 -22 -18 -50z m-1580
-173 c-24 -40 -34 -47 -76 -56 -62 -14 -67 -14 -67 4 0 8 3 15 8 15 4 0 41 27
82 60 61 49 76 56 78 41 2 -10 -10 -39 -25 -64z m-313 38 c0 -8 -7 -15 -15
-15 -26 0 -18 20 13 29 1 1 2 -6 2 -14z m570 -2 c0 -31 -39 -97 -88 -150 -26
-29 -51 -53 -55 -53 -27 0 18 89 91 177 37 46 52 53 52 26z m-330 -126 c0 -28
-69 -85 -135 -111 -36 -14 -70 -24 -76 -21 -12 8 11 50 53 97 28 32 40 38 83
41 28 2 56 4 63 5 6 1 12 -4 12 -11z m727 -91 c-4 -9 -16 -16 -27 -16 -12 0
-19 4 -16 9 3 4 11 21 17 37 11 29 11 29 21 7 6 -12 8 -29 5 -37z m-777 -26
c0 -5 -5 -10 -11 -10 -5 0 -7 5 -4 10 3 6 8 10 11 10 2 0 4 -4 4 -10z"/>
<path d="M3380 6214 c0 -14 4 -23 10 -19 6 3 10 15 10 26 0 10 -4 19 -10 19
-5 0 -10 -12 -10 -26z"/>
<path d="M2420 5940 c0 -5 7 -10 16 -10 8 0 12 5 9 10 -3 6 -10 10 -16 10 -5
0 -9 -4 -9 -10z"/>
<path d="M3741 5454 c0 -11 3 -14 6 -6 3 7 2 16 -1 19 -3 4 -6 -2 -5 -13z"/>
<path d="M4858 4153 c7 -3 16 -2 19 1 4 3 -2 6 -13 5 -11 0 -14 -3 -6 -6z"/>
<path d="M3900 6332 c0 -18 12 -42 21 -42 13 0 4 43 -9 48 -7 2 -12 -1 -12 -6z"/>
<path d="M2610 6300 c-9 -6 -10 -10 -3 -10 6 0 15 5 18 10 8 12 4 12 -15 0z"/>
<path d="M3950 6290 c0 -5 5 -10 10 -10 6 0 10 5 10 10 0 6 -4 10 -10 10 -5 0
-10 -4 -10 -10z"/>
<path d="M2544 6266 c-10 -8 -16 -18 -11 -22 4 -4 16 2 27 14 23 25 14 29 -16
8z"/>
<path d="M3932 6250 c13 -21 38 -35 38 -21 0 9 -33 41 -43 41 -4 0 -2 -9 5
-20z"/>
<path d="M2470 6231 c0 -18 17 -20 36 -6 18 14 18 14 -8 15 -16 0 -28 -4 -28
-9z"/>
<path d="M2565 6230 c-3 -5 -1 -10 4 -10 6 0 11 5 11 10 0 6 -2 10 -4 10 -3 0
-8 -4 -11 -10z"/>
<path d="M3900 6208 c0 -13 9 -36 20 -53 22 -34 26 -21 8 36 -12 43 -28 52
-28 17z"/>
<path d="M3801 6168 c-13 -13 -17 -25 -12 -32 5 -6 10 -14 10 -18 1 -5 2 -11
2 -15 1 -5 1 -15 0 -25 -1 -9 3 -19 9 -23 8 -5 10 1 8 16 -2 19 2 25 20 27 16
3 21 9 18 20 -3 9 -8 29 -12 45 -8 33 -17 34 -43 5z"/>
<path d="M3165 6120 c3 -5 8 -10 11 -10 2 0 4 5 4 10 0 6 -5 10 -11 10 -5 0
-7 -4 -4 -10z"/>
<path d="M3950 6110 c0 -5 5 -10 11 -10 5 0 7 5 4 10 -3 6 -8 10 -11 10 -2 0
-4 -4 -4 -10z"/>
<path d="M3970 6080 c0 -5 5 -10 11 -10 5 0 7 5 4 10 -3 6 -8 10 -11 10 -2 0
-4 -4 -4 -10z"/>
<path d="M4410 5745 c0 -24 -5 -35 -15 -35 -20 0 -19 -26 1 -34 24 -9 26 -8
19 13 -3 10 1 23 8 30 8 6 12 22 9 36 -7 37 -22 30 -22 -10z"/>
<path d="M4777 5746 c-3 -8 -9 -56 -13 -108 -5 -74 -3 -96 7 -105 12 -9 14 8
16 108 2 116 1 133 -10 105z"/>
<path d="M1938 5713 c12 -22 30 -38 37 -31 2 2 -8 14 -22 28 -24 23 -25 23
-15 3z"/>
<path d="M4777 5351 c-3 -77 -10 -148 -15 -158 -5 -10 -13 -42 -17 -71 -6 -49
-5 -54 11 -50 10 2 20 12 23 23 2 11 10 24 17 30 17 12 22 103 12 238 -12 152
-24 148 -31 -12z"/>
<path d="M4968 5247 c-8 -21 -9 -117 -2 -128 12 -20 24 14 24 73 0 53 -12 84
-22 55z"/>
<path d="M4916 4982 c-16 -59 -29 -119 -30 -134 -1 -16 -4 -28 -8 -28 -9 0
-52 -130 -45 -137 6 -5 27 32 59 100 14 29 15 43 7 58 -7 13 -7 25 -1 32 16
19 60 194 53 206 -4 6 -20 -38 -35 -97z"/>
<path d="M4650 5040 c0 -5 5 -10 10 -10 6 0 10 5 10 10 0 6 -4 10 -10 10 -5 0
-10 -4 -10 -10z"/>
<path d="M1680 4827 c0 -16 75 -60 93 -54 7 3 4 8 -8 12 -11 5 -35 19 -52 32
-23 17 -33 20 -33 10z"/>
<path d="M3955 4760 c-3 -5 -1 -10 4 -10 6 0 11 5 11 10 0 6 -2 10 -4 10 -3 0
-8 -4 -11 -10z"/>
<path d="M4025 4760 c3 -5 8 -10 11 -10 2 0 4 5 4 10 0 6 -5 10 -11 10 -5 0
-7 -4 -4 -10z"/>
<path d="M4964 4745 c-3 -14 -1 -32 6 -40 15 -18 -11 -210 -35 -258 -19 -37
-19 -37 3 -37 14 0 23 21 43 106 24 98 25 110 13 162 -8 31 -11 65 -8 75 3 9
1 17 -5 17 -6 0 -13 -11 -17 -25z"/>
<path d="M5012 4690 c0 -19 2 -27 5 -17 2 9 2 25 0 35 -3 9 -5 1 -5 -18z"/>
<path d="M4521 4694 c-20 -23 -9 -25 19 -4 16 13 20 20 10 19 -8 0 -21 -7 -29
-15z"/>
<path d="M3165 4670 c-3 -5 -2 -10 4 -10 5 0 13 5 16 10 3 6 2 10 -4 10 -5 0
-13 -4 -16 -10z"/>
<path d="M5365 4615 c-33 -7 -73 -18 -88 -24 -16 -6 -44 -11 -62 -11 -28 0
-75 -13 -94 -27 -2 -1 2 -9 8 -17 11 -13 4 -20 -41 -45 -49 -28 -98 -71 -98
-87 0 -3 14 -23 30 -44 17 -21 30 -43 30 -49 0 -6 5 -11 10 -11 6 0 10 -8 10
-18 0 -10 14 -39 30 -65 23 -36 30 -59 30 -97 l0 -49 59 -35 c64 -39 92 -44
111 -21 7 8 18 15 25 15 7 0 18 7 25 15 20 24 69 18 96 -11 18 -18 24 -37 24
-69 0 -34 5 -47 20 -55 35 -19 80 20 80 69 0 27 -16 27 -31 0 -8 -16 -14 -18
-22 -10 -9 9 -8 17 1 31 16 27 15 32 -6 26 -23 -8 -57 27 -49 48 4 9 2 18 -3
21 -6 4 -10 21 -10 40 0 27 -9 43 -41 74 l-41 39 -1 85 c0 47 -5 84 -9 81 -4
-3 -8 -12 -8 -20 0 -19 -7 -18 -41 9 -100 76 -149 119 -149 132 0 9 14 16 38
20 20 3 75 14 122 25 104 25 157 26 182 3 19 -17 17 -19 -54 -85 -40 -37 -67
-68 -60 -68 7 0 40 27 75 60 34 33 70 60 80 60 17 0 17 1 0 25 -20 27 -71 55
-100 54 -10 0 -45 -7 -78 -14z m-315 -224 c0 -10 68 -81 78 -81 5 0 15 -7 22
-15 11 -13 8 -15 -16 -15 -32 1 -64 20 -64 40 0 7 -11 25 -25 42 -28 33 -32
50 -10 42 8 -4 15 -9 15 -13z m200 -190 c0 -12 -2 -13 -9 -3 -4 7 -12 12 -17
11 -17 -3 -25 1 -20 10 9 15 46 0 46 -18z"/>
<path d="M4905 4609 c-4 -6 -5 -12 -2 -15 2 -3 7 2 10 11 7 17 1 20 -8 4z"/>
<path d="M5620 4514 c0 -15 22 -44 31 -39 14 9 11 19 -11 33 -11 7 -20 10 -20
6z"/>
<path d="M5685 4460 c3 -5 8 -10 11 -10 2 0 4 5 4 10 0 6 -5 10 -11 10 -5 0
-7 -4 -4 -10z"/>
<path d="M4782 4389 c-18 -27 -32 -53 -32 -55 0 -3 -12 -22 -26 -42 l-26 -37
35 38 c33 36 91 136 84 144 -2 2 -18 -20 -35 -48z"/>
<path d="M5796 4340 c26 -33 49 -60 51 -60 9 0 -40 75 -63 98 -42 40 -36 23
12 -38z"/>
<path d="M5671 4352 c9 -12 28 -32 45 -44 l29 -23 -20 26 c-10 14 -30 34 -44
44 l-25 19 15 -22z"/>
<path d="M3417 4243 c-13 -12 -7 -23 13 -23 11 0 20 7 20 15 0 15 -21 21 -33
8z"/>
<path d="M5805 4210 c3 -5 8 -10 11 -10 2 0 4 5 4 10 0 6 -5 10 -11 10 -5 0
-7 -4 -4 -10z"/>
<path d="M4260 4185 c-11 -13 -10 -14 4 -9 9 3 16 10 16 15 0 13 -6 11 -20 -6z"/>
<path d="M5580 4180 c0 -11 5 -20 10 -20 6 0 10 9 10 20 0 11 -4 20 -10 20 -5
0 -10 -9 -10 -20z"/>
<path d="M4235 4149 c-4 -6 -5 -12 -2 -15 2 -3 7 2 10 11 7 17 1 20 -8 4z"/>
<path d="M5976 4028 c14 -40 44 -162 44 -176 0 -4 -18 34 -40 83 -37 83 -43
91 -77 102 -21 6 -40 10 -42 7 -2 -2 -5 -19 -7 -37 -1 -17 -10 -59 -20 -92
-12 -41 -17 -91 -17 -155 2 -114 18 -163 98 -294 77 -127 75 -124 120 -184 22
-30 49 -67 60 -82 11 -15 47 -61 80 -101 60 -73 60 -73 63 -42 2 18 -2 56 -8
85 -6 29 -19 100 -29 158 -21 120 -52 250 -88 365 -13 44 -40 131 -59 193 -31
102 -77 212 -89 212 -2 0 3 -19 11 -42z m-79 -144 c-9 -9 -27 6 -27 22 0 13 2
13 16 -1 9 -9 14 -18 11 -21z m-38 -51 c0 -25 -1 -25 -8 -8 -5 11 -7 23 -4 28
8 14 13 7 12 -20z m52 -49 c9 -5 10 -2 6 9 -11 30 16 31 40 1 12 -16 23 -34
23 -40 0 -6 8 -22 18 -35 19 -24 42 -109 46 -164 1 -16 5 -35 9 -41 4 -7 7
-23 7 -35 0 -13 2 -47 5 -75 6 -67 -14 -89 -45 -53 -34 39 -62 111 -65 164 -1
31 -14 75 -35 118 -24 50 -33 86 -36 135 -3 48 -2 61 5 46 5 -12 15 -25 22
-30z m239 -326 c1 -2 7 -39 15 -83 8 -44 15 -89 15 -99 0 -18 -1 -18 -19 -2
-13 12 -22 37 -26 75 -3 31 -8 68 -10 84 -3 19 0 27 10 27 8 0 15 -1 15 -2z
m28 -281 c2 -12 -1 -15 -12 -11 -22 8 -30 36 -9 32 10 -2 19 -11 21 -21z"/>
<path d="M5430 3880 c-15 -20 -17 -30 -8 -30 17 1 51 47 39 55 -5 3 -19 -8
-31 -25z"/>
<path d="M2260 3770 c0 -5 5 -10 11 -10 5 0 7 5 4 10 -3 6 -8 10 -11 10 -2 0
-4 -4 -4 -10z"/>
<path d="M2925 3650 c-3 -6 5 -10 19 -10 14 0 28 5 31 10 3 6 -5 10 -19 10
-14 0 -28 -4 -31 -10z"/>
<path d="M3410 3650 c0 -5 5 -10 10 -10 6 0 10 5 10 10 0 6 -4 10 -10 10 -5 0
-10 -4 -10 -10z"/>
<path d="M2895 3640 c-3 -5 -1 -10 4 -10 6 0 11 5 11 10 0 6 -2 10 -4 10 -3 0
-8 -4 -11 -10z"/>
<path d="M3316 3634 c-4 -10 -1 -14 6 -12 15 5 23 28 10 28 -5 0 -13 -7 -16
-16z"/>
<path d="M3288 3580 c-14 -30 -15 -37 -2 -61 14 -28 81 -87 121 -108 18 -9 29
-9 50 3 l28 15 -28 1 c-32 0 -79 22 -108 51 -28 28 -24 32 29 25 43 -6 46 -5
28 9 -20 15 -36 19 -69 15 -27 -2 -50 20 -36 36 6 7 9 21 7 31 -2 13 -7 9 -20
-17z"/>
<path d="M4135 3580 c-3 -5 -2 -10 4 -10 5 0 13 5 16 10 3 6 2 10 -4 10 -5 0
-13 -4 -16 -10z"/>
<path d="M4065 3545 c-27 -13 -46 -25 -41 -25 12 0 96 40 96 46 0 6 -1 6 -55
-21z"/>
<path d="M2514 3533 c10 -13 23 -20 29 -16 7 4 6 8 -3 11 -8 3 -22 10 -30 16
-8 6 -7 1 4 -11z"/>
<path d="M2588 3533 c-30 -36 -30 -47 0 -19 18 17 32 31 32 33 0 9 -19 1 -32
-14z"/>
<path d="M5206 3505 c9 -14 21 -25 27 -25 6 0 0 11 -13 25 -13 14 -25 25 -27
25 -2 0 4 -11 13 -25z"/>
<path d="M3903 3483 c9 -2 23 -2 30 0 6 3 -1 5 -18 5 -16 0 -22 -2 -12 -5z"/>
<path d="M4243 3483 c-15 -5 -17 -23 -4 -23 5 0 11 7 15 15 3 8 4 15 3 14 -1
0 -8 -3 -14 -6z"/>
<path d="M3565 3460 c-7 -12 54 -12 100 0 24 6 18 8 -32 9 -34 0 -65 -3 -68
-9z"/>
<path d="M3518 3443 c6 -2 18 -2 25 0 6 3 1 5 -13 5 -14 0 -19 -2 -12 -5z"/>
<path d="M3995 3440 c-19 -7 -19 -7 3 -14 26 -9 41 -1 26 13 -5 5 -18 5 -29 1z"/>
<path d="M4050 3440 c0 -5 7 -10 15 -10 8 0 15 5 15 10 0 6 -7 10 -15 10 -8 0
-15 -4 -15 -10z"/>
<path d="M4148 3436 c-8 -7 -24 -17 -36 -20 -12 -4 -22 -12 -22 -17 0 -5 -7
-9 -15 -9 -17 0 -20 -16 -5 -25 6 -4 8 -11 4 -16 -4 -6 -11 -6 -19 1 -10 9
-25 5 -60 -14 -25 -14 -52 -26 -60 -26 -8 0 -18 -6 -22 -12 -4 -7 -34 -30 -65
-52 -32 -21 -55 -42 -52 -47 7 -12 20 -11 36 4 17 16 85 47 103 47 8 0 19 9
25 20 6 11 16 20 23 20 17 0 127 57 150 78 9 8 15 23 12 31 -3 12 6 21 33 33
35 16 35 17 10 17 -15 1 -33 -5 -40 -13z"/>
<path d="M3277 3423 c-4 -6 -1 -23 7 -38 9 -17 16 -22 19 -13 4 10 7 11 18 1
11 -11 9 -15 -7 -27 -17 -13 -17 -15 -2 -21 9 -4 18 -14 21 -24 2 -9 33 -42
69 -74 64 -56 65 -56 103 -46 39 11 39 11 16 24 -15 8 -20 15 -12 19 6 4 11 3
11 -2 0 -6 10 -8 22 -4 17 4 20 2 15 -12 -4 -11 -3 -15 4 -11 5 4 28 8 50 9
22 1 49 10 60 19 10 9 24 17 29 17 9 0 30 40 30 56 0 10 -48 3 -66 -11 -10 -8
-29 -15 -40 -15 -12 0 -27 -7 -34 -15 -18 -22 -83 -19 -124 6 -35 21 -46 42
-26 54 17 11 11 25 -11 25 -12 0 -43 16 -69 35 -26 19 -52 35 -58 35 -6 0 -12
5 -14 12 -3 8 -6 9 -11 1z"/>
<path d="M5310 3412 c0 -12 49 -56 55 -50 7 7 -34 58 -46 58 -5 0 -9 -4 -9 -8z"/>
<path d="M3958 3403 c7 -3 16 -2 19 1 4 3 -2 6 -13 5 -11 0 -14 -3 -6 -6z"/>
<path d="M3582 3372 c-29 -25 -44 -62 -24 -62 11 0 72 69 72 81 0 15 -13 10
-48 -19z"/>
<path d="M2716 3328 c-10 -63 -27 -81 -68 -73 -47 9 -65 -23 -49 -83 7 -23 16
-44 21 -47 6 -4 8 -10 5 -15 -3 -5 -1 -11 5 -15 14 -9 12 -45 -3 -45 -13 0
-41 48 -50 85 -12 45 -43 122 -56 136 -9 9 -26 13 -44 11 -33 -5 -38 -16 -85
-162 -16 -52 -49 -147 -72 -210 -23 -63 -51 -144 -62 -180 -43 -136 -71 -191
-112 -226 -45 -37 -258 -165 -376 -225 -186 -94 -219 -106 -479 -179 -154 -44
-261 -92 -301 -135 -23 -25 -20 -24 55 14 87 44 181 76 350 121 91 23 230 81
335 139 8 5 26 13 40 19 109 43 138 58 250 127 101 63 93 59 85 35 -4 -12 -8
-37 -10 -56 -3 -42 -11 -52 -19 -26 -6 17 -36 39 -40 30 -1 -2 -14 -17 -30
-35 -27 -30 -28 -33 -15 -62 14 -31 32 -40 44 -20 4 5 0 18 -9 28 -9 10 -16
26 -16 36 0 14 3 15 15 5 8 -7 15 -9 15 -4 0 5 7 -2 16 -14 15 -21 14 -26 -22
-80 -52 -79 -59 -83 -92 -52 -12 11 -27 20 -33 20 -8 0 -5 -5 5 -13 11 -8 15
-19 10 -30 -8 -23 -34 -22 -34 1 0 11 -11 24 -25 30 -31 14 -38 15 -31 3 4 -5
0 -12 -6 -14 -9 -4 -8 -6 2 -6 20 -1 43 -38 30 -46 -6 -3 -14 -4 -19 0 -5 3
-12 1 -16 -5 -3 -5 -11 -10 -17 -10 -6 0 -4 8 5 18 16 17 14 32 -4 32 -4 0
-17 -16 -29 -36 -14 -22 -28 -33 -37 -30 -8 3 -11 1 -8 -4 4 -6 12 -10 18 -9
23 3 37 -1 37 -10 0 -5 -9 -7 -19 -4 -13 3 -24 -2 -33 -16 -7 -12 -21 -21 -32
-21 -11 0 -31 -13 -45 -28 -14 -16 -41 -34 -59 -42 -18 -7 -47 -30 -65 -50
-18 -21 -60 -51 -94 -68 -34 -18 -64 -36 -68 -42 -13 -21 -55 -11 -65 15 -5
14 -14 25 -20 25 -5 0 -10 9 -10 20 0 21 27 40 59 40 12 0 21 4 21 8 0 18 -13
20 -44 8 -17 -8 -49 -19 -71 -26 -22 -7 -58 -20 -80 -30 -22 -9 -67 -27 -100
-40 -33 -12 -83 -33 -111 -45 -28 -13 -95 -42 -150 -65 -54 -23 -142 -59 -194
-81 -169 -72 -218 -91 -280 -109 -25 -8 -52 -20 -61 -27 -8 -7 -22 -13 -30
-14 -8 0 -32 -11 -54 -24 -55 -32 -165 -85 -176 -85 -5 0 -9 -224 -9 -520 0
-512 0 -520 20 -520 21 0 138 30 235 60 33 10 98 20 145 22 l85 3 6 -52 c6
-47 86 -241 132 -320 l19 -33 265 0 265 0 -38 43 c-21 23 -40 44 -44 47 -24
20 -81 102 -76 108 4 4 14 -2 22 -13 8 -11 40 -49 72 -84 31 -35 61 -72 66
-82 9 -18 23 -19 275 -17 l266 3 -2 28 c-2 23 1 26 12 17 17 -14 31 5 16 24
-8 10 -6 18 9 31 11 10 23 15 27 11 4 -4 1 -11 -7 -16 -12 -8 -13 -13 -3 -29
10 -16 9 -22 -8 -37 -10 -9 -19 -21 -19 -26 0 -4 76 -8 170 -8 93 0 169 3 168
7 -4 22 17 62 38 71 13 7 52 50 86 96 63 85 68 95 196 421 22 55 60 140 85
188 42 82 45 92 42 153 -3 57 -1 64 14 58 63 -26 152 -44 171 -34 9 5 28 34
44 65 26 54 29 56 58 50 55 -13 26 18 -38 39 -32 11 -61 21 -63 23 -3 2 3 17
12 32 9 16 17 36 17 45 0 8 12 37 26 63 77 139 140 245 203 343 19 30 47 78
62 106 16 29 42 73 58 100 17 26 31 54 31 61 0 7 4 13 9 13 15 0 44 51 34 61
-16 16 -43 -1 -43 -26 0 -25 -24 -58 -77 -108 -18 -16 -35 -43 -38 -58 -4 -16
-10 -29 -15 -29 -4 0 -13 -12 -19 -27 -14 -34 -28 -58 -62 -103 -14 -19 -31
-48 -39 -64 -8 -15 -24 -38 -36 -49 -12 -12 -20 -27 -17 -34 3 -7 1 -13 -5
-13 -5 0 -22 -25 -37 -54 -15 -30 -34 -57 -41 -60 -8 -3 -14 -16 -14 -30 0
-15 -12 -34 -30 -49 -23 -20 -30 -34 -30 -62 0 -21 -4 -34 -10 -30 -6 4 -7 -5
-4 -23 5 -24 2 -30 -18 -36 l-23 -7 23 -9 c12 -5 22 -15 22 -21 0 -7 -9 -9
-22 -5 -13 3 -26 6 -30 6 -5 0 -8 13 -8 28 0 16 -3 31 -6 35 -10 9 -84 -47
-79 -60 8 -25 -62 -13 -161 25 -55 22 -134 51 -177 67 -43 15 -81 34 -84 43
-13 32 48 325 82 399 8 17 15 36 15 42 0 6 23 54 50 108 28 54 50 105 50 115
0 9 4 19 9 22 5 3 11 18 14 33 5 32 51 162 73 211 8 18 22 57 29 87 8 29 23
68 35 87 20 33 27 68 13 68 -5 0 -44 -73 -88 -162 -44 -89 -86 -164 -94 -166
-9 -3 -11 2 -6 18 9 30 -13 80 -42 91 -13 5 -28 20 -33 34 -8 21 -13 24 -28
16 -18 -9 -20 -5 -25 54 -6 61 3 147 19 190 4 11 25 40 46 64 21 24 38 48 38
53 0 4 12 27 26 49 14 23 23 47 20 55 -4 9 -2 12 5 8 11 -7 61 42 72 70 4 9
13 16 22 16 8 0 15 4 15 9 0 5 17 24 37 43 21 18 90 85 154 148 64 63 135 132
158 152 22 20 41 42 41 47 0 14 -27 14 -35 1 -11 -19 -26 -11 -16 8 13 25 -4
54 -19 32 -5 -8 -10 -10 -10 -4 0 5 5 15 10 20 15 15 26 144 13 144 -6 0 -14
-19 -17 -42z m-239 -82 c-3 -8 -2 -30 3 -48 9 -30 8 -31 -5 -14 -16 21 -20 58
-8 69 11 11 15 8 10 -7z m-114 -378 c-4 -24 -10 -44 -14 -46 -5 -2 -9 -15 -9
-28 0 -13 -4 -24 -9 -24 -18 0 -17 35 1 72 10 21 18 44 18 53 0 8 4 15 9 15 5
0 7 -19 4 -42z m37 -20 c0 -19 -2 -20 -10 -8 -13 19 -13 30 0 30 6 0 10 -10
10 -22z m-88 -110 c-3 -13 -7 -16 -12 -8 -4 7 -5 21 -2 32 3 13 7 16 12 8 4
-7 5 -21 2 -32z m-1086 -933 c0 -22 -5 -35 -13 -35 -7 0 -13 7 -13 15 0 9 -6
12 -16 8 -15 -5 -15 -7 0 -15 22 -12 21 -48 -1 -48 -19 0 -107 -27 -135 -41
-10 -5 -34 -9 -53 -9 -20 0 -49 -7 -65 -15 -16 -9 -50 -18 -75 -22 -25 -3 -45
-10 -45 -14 0 -12 -57 -11 -65 1 -3 6 6 15 22 21 15 6 44 17 63 26 39 17 56
24 115 48 45 18 121 52 147 66 10 5 23 9 31 9 7 0 28 9 47 19 49 28 56 26 56
-14z m-486 -195 c0 -4 -20 -13 -44 -19 -56 -14 -59 -14 -54 1 9 25 98 42 98
18z m-130 -40 c-21 -21 -40 -26 -40 -12 0 8 36 30 53 31 4 1 -2 -8 -13 -19z
m-70 -30 c0 -5 -8 -10 -17 -10 -15 0 -16 2 -3 10 19 12 20 12 20 0z m348 -88
c2 -7 -2 -10 -12 -6 -9 3 -16 11 -16 16 0 13 23 5 28 -10z m-20 -55 c3 -12 -4
-17 -22 -17 -28 0 -33 9 -14 28 15 15 32 10 36 -11z m52 7 c0 -8 -5 -12 -10
-9 -6 4 -8 11 -5 16 9 14 15 11 15 -7z m-187 -65 c16 -12 26 -29 25 -42 -2
-19 -7 -22 -37 -19 l-36 3 24 -19 c27 -21 19 -31 -29 -37 -16 -2 -43 -13 -59
-24 -16 -12 -34 -21 -40 -21 -6 0 -26 -8 -46 -17 -29 -14 -40 -15 -55 -5 -11
6 -44 13 -75 14 -42 2 -53 5 -42 13 20 14 9 35 -18 35 -17 0 -25 -7 -28 -22
-4 -23 -4 -23 -6 0 0 15 11 35 29 52 17 15 30 33 30 39 0 17 -38 13 -48 -5 -6
-10 -12 -13 -16 -6 -3 6 8 21 25 33 29 21 33 21 44 6 7 -9 20 -17 29 -17 9 0
16 -8 16 -20 0 -26 26 -26 33 0 3 13 10 18 21 14 9 -3 14 -10 11 -15 -3 -4 11
-11 32 -14 21 -3 46 -8 55 -10 10 -1 23 3 29 11 6 8 19 13 28 12 11 -2 15 4
14 18 -2 14 6 25 22 32 14 7 25 16 25 22 0 16 15 12 43 -11z m-253 -9 c0 -5
-5 -10 -11 -10 -5 0 -7 5 -4 10 3 6 8 10 11 10 2 0 4 -4 4 -10z m-180 -76 c0
-9 -7 -14 -17 -12 -25 5 -28 28 -4 28 12 0 21 -6 21 -16z m170 -114 c0 -5 -4
-10 -10 -10 -5 0 -10 5 -10 10 0 6 5 10 10 10 6 0 10 -4 10 -10z m2106 -41 c3
-6 2 -14 -3 -18 -5 -3 -12 -14 -16 -23 -7 -20 -23 -23 -33 -7 -4 7 1 16 10 21
9 5 16 16 16 23 0 18 16 20 26 4z m83 -65 c2 -2 2 -7 -2 -10 -9 -10 -97 6 -97
17 0 9 88 3 99 -7z m-185 -96 c-7 -11 -54 -10 -54 1 0 5 13 9 30 9 16 -1 27
-5 24 -10z m0 -63 c-4 -8 -7 -15 -9 -15 -2 0 -5 7 -9 15 -3 9 0 15 9 15 9 0
12 -6 9 -15z m-126 -57 c0 -42 26 -98 44 -98 25 0 23 -7 -20 -113 -21 -50 -41
-106 -45 -123 -3 -17 -17 -55 -30 -85 -14 -30 -31 -70 -38 -89 -7 -19 -30 -56
-51 -81 -21 -26 -38 -51 -38 -56 0 -23 -83 -91 -117 -96 -20 -4 -50 -19 -66
-34 -24 -23 -29 -24 -22 -8 4 11 22 78 40 150 18 72 41 153 50 180 30 86 111
247 157 311 35 50 128 163 134 164 1 0 2 -10 2 -22z m103 -5 c-8 -15 -10 -15
-11 -2 0 17 10 32 18 25 2 -3 -1 -13 -7 -23z m-421 -401 c0 -15 -60 -93 -75
-99 -8 -3 -15 -10 -15 -17 0 -6 -9 -18 -20 -26 -11 -8 -20 -20 -20 -27 0 -7
-4 -13 -10 -13 -12 0 -13 13 -2 24 4 4 7 11 7 15 0 12 53 71 64 71 6 0 11 5
11 10 0 6 10 24 22 40 21 29 38 39 38 22z m-1030 -187 c0 -8 -4 -15 -9 -15 -5
0 -11 7 -15 15 -3 9 0 15 9 15 8 0 15 -7 15 -15z m846 -1 c-3 -9 -6 -24 -6
-35 0 -11 -7 -19 -16 -19 -12 0 -14 -7 -9 -30 7 -34 3 -37 -19 -14 -22 22 -20
41 9 66 14 12 25 28 25 35 0 7 5 13 11 13 6 0 8 -7 5 -16z m26 -26 c-7 -7 -12
-8 -12 -2 0 14 12 26 19 19 2 -3 -1 -11 -7 -17z m-1215 -150 c-3 -8 -6 -5 -6
6 -1 11 2 17 5 13 3 -3 4 -12 1 -19z"/>
<path d="M690 1300 c-12 -8 -11 -10 8 -10 12 0 22 5 22 10 0 13 -11 13 -30 0z"/>
<path d="M2880 3295 c0 -33 1 -35 16 -21 17 18 16 47 -3 54 -9 2 -13 -8 -13
-33z"/>
<path d="M4952 3309 c-8 -12 -9 -18 -3 -14 14 8 14 -3 0 -82 -11 -63 -6 -91
11 -63 7 12 10 11 16 -4 5 -14 0 -25 -19 -40 -30 -24 -47 -64 -47 -110 0 -17
-4 -36 -10 -42 -11 -11 -14 -83 -6 -169 3 -33 7 -91 10 -130 8 -126 17 -176
31 -165 9 7 16 6 24 -3 21 -26 24 -78 8 -165 -9 -48 -26 -152 -38 -232 -11
-80 -33 -193 -48 -251 -24 -94 -36 -120 -98 -216 -65 -99 -164 -287 -204 -388
-9 -22 -41 -114 -70 -205 l-55 -165 -60 -9 c-35 -5 -108 -4 -179 2 -137 11
-176 10 -295 -11 -114 -20 -295 -44 -349 -46 -61 -2 -151 27 -181 59 -15 15
-35 26 -50 26 -14 -1 -33 7 -43 17 -22 22 -61 19 -65 -5 -2 -12 5 -19 25 -23
42 -10 83 -26 83 -34 0 -15 69 -39 126 -46 32 -3 71 -11 87 -17 33 -13 194 3
362 35 61 11 135 20 165 19 30 -1 108 -2 173 -3 64 0 117 -2 117 -4 0 -1 -10
-24 -22 -51 -29 -66 -48 -141 -48 -190 0 -77 30 -213 69 -311 21 -54 53 -137
71 -186 l33 -87 517 0 517 0 68 208 c63 194 121 354 147 412 9 20 12 21 15 8
2 -9 -5 -36 -16 -59 -12 -24 -21 -50 -21 -58 0 -9 -9 -45 -21 -81 -44 -136
-49 -155 -49 -172 0 -10 -4 -18 -10 -18 -5 0 -10 -12 -10 -26 0 -14 -5 -35
-12 -47 -11 -21 -37 -127 -38 -154 0 -7 6 -13 13 -13 7 0 19 21 26 47 8 27 22
65 33 86 13 27 17 48 12 73 -4 20 -2 39 3 43 5 3 17 28 27 54 10 26 31 62 46
79 15 17 30 42 33 57 13 61 42 131 55 131 10 0 12 7 8 25 -7 26 3 32 21 14 6
-6 26 -12 45 -13 l33 -2 0 -119 c0 -66 -5 -147 -11 -180 -16 -81 -32 -179 -39
-242 -5 -51 -5 -53 18 -53 23 0 25 5 36 77 6 43 16 129 21 191 7 72 17 123 27
138 15 24 15 54 -2 141 -3 16 -2 22 1 15 5 -10 9 -10 20 -1 11 9 12 14 3 19
-8 6 -8 13 0 29 10 17 9 22 -4 27 -14 6 -14 8 1 19 13 9 14 14 5 19 -8 5 -9
12 -2 20 6 7 14 36 20 66 5 30 21 109 36 175 14 66 29 139 34 163 5 23 16 51
25 61 9 10 25 42 36 72 16 46 22 54 42 51 13 -1 39 -3 58 -5 40 -2 38 10 26
-157 -15 -231 -18 -295 -12 -289 3 3 8 41 12 85 3 43 15 153 26 244 11 91 24
203 28 250 17 166 35 225 66 213 8 -3 14 0 14 6 0 6 -6 11 -14 11 -7 0 -19 7
-26 15 -7 8 -22 15 -34 15 -28 1 -110 61 -197 144 l-70 67 37 52 c20 29 47 61
60 72 l22 20 -55 75 c-69 92 -119 197 -174 360 -52 158 -79 210 -190 379 -142
214 -223 320 -235 309 -4 -4 6 -24 22 -44 37 -47 94 -131 118 -175 11 -19 37
-60 58 -92 21 -32 36 -63 33 -68 -4 -5 1 -6 9 -3 10 4 16 1 16 -9 0 -8 6 -20
13 -26 17 -14 89 -161 100 -206 16 -61 79 -230 111 -296 40 -84 55 -139 37
-139 -7 0 -11 -25 -11 -71 0 -62 -2 -70 -15 -59 -13 11 -15 8 -15 -14 0 -14 5
-26 11 -26 6 0 1 -9 -12 -21 l-24 -20 23 6 c19 5 22 2 22 -19 0 -18 -4 -24
-15 -20 -17 7 -21 -16 -5 -32 5 -5 6 -24 1 -45 -6 -27 -3 -49 10 -85 11 -27
19 -53 19 -57 0 -22 -39 8 -162 124 -73 70 -160 149 -193 177 -33 27 -78 67
-100 88 -69 65 -178 158 -242 207 -34 26 -68 53 -75 60 -29 27 -117 96 -180
141 -66 45 -82 65 -55 67 6 0 2 5 -10 11 -28 14 -30 34 -3 41 11 3 20 13 20
22 0 18 43 154 64 200 47 103 56 125 56 130 0 10 100 209 111 220 14 15 11 45
-6 45 -9 0 -20 -10 -25 -22 -13 -31 -32 -59 -51 -78 -8 -8 -37 -64 -64 -125
-26 -60 -58 -126 -71 -146 -12 -20 -25 -57 -29 -83 -14 -88 -22 -55 -23 85 -1
78 -4 149 -7 159 -3 9 -1 55 4 101 5 46 6 90 2 98 -5 7 -5 30 -1 50 4 20 10
57 14 84 5 44 4 47 -17 47 -12 0 -28 -9 -35 -21z m565 -1581 c-3 -8 -6 -5 -6
6 -1 11 2 17 5 13 3 -3 4 -12 1 -19z m713 -39 c25 -16 56 -35 69 -40 22 -9 23
-13 17 -70 -12 -106 -15 -107 -74 -28 -28 39 -52 76 -52 83 0 6 -7 22 -16 34
-15 22 -13 52 3 52 4 0 28 -14 53 -31z m-386 -203 c-4 -36 -11 -66 -15 -66 -5
0 -9 8 -9 17 0 23 23 123 28 119 1 -2 0 -33 -4 -70z m316 2 c0 -13 -17 -9 -30
7 -6 8 -8 20 -4 26 5 9 11 7 21 -6 7 -11 13 -22 13 -27z m-571 10 c5 -13 6
-29 4 -35 -6 -15 -51 -17 -73 -3 -12 7 -11 13 10 34 29 32 48 33 59 4z m-209
-58 c-6 -12 -14 -20 -17 -17 -2 3 1 14 8 26 17 26 24 19 9 -9z m385 -77 c-3
-18 -10 -33 -15 -33 -6 0 -10 3 -10 8 0 4 -3 17 -6 30 -5 16 -2 22 10 22 12 0
15 6 10 24 -3 14 -2 31 3 38 11 17 17 -44 8 -89z m299 26 c36 -43 34 -59 -9
-59 -20 0 -47 -7 -60 -16 -25 -16 -25 -16 -44 27 -22 48 -20 59 7 52 10 -2 24
3 31 11 20 24 47 19 75 -15z m-314 -81 c0 -31 -25 -78 -42 -78 -25 0 -23 36 1
43 14 3 18 11 14 26 -4 15 -1 21 11 21 9 0 16 -5 16 -12z m297 -24 c8 -21 -13
-42 -28 -27 -13 13 -5 43 11 43 6 0 13 -7 17 -16z m73 2 c0 -28 -12 -46 -32
-46 -14 0 -18 5 -14 16 3 9 6 22 6 30 0 8 9 14 20 14 11 0 20 -6 20 -14z
m-820 -8 c0 -7 -9 -24 -21 -38 l-20 -25 18 37 c19 41 23 45 23 26z m505 -25
c-9 -52 -27 -103 -37 -103 -11 0 -10 18 2 25 6 3 10 19 10 35 0 27 18 80 27
80 2 0 1 -17 -2 -37z m61 -40 c-5 -11 -2 -13 9 -9 11 4 40 -18 91 -67 79 -78
84 -91 65 -166 -61 -236 -59 -231 -100 -231 -44 1 -80 44 -143 170 -14 29 -15
42 -7 75 6 22 13 51 16 65 16 78 56 190 64 184 6 -3 8 -13 5 -21z m148 1 c5
-13 15 -15 46 -11 45 6 51 -5 17 -28 -36 -23 -72 -24 -72 -1 0 11 -6 21 -13
24 -17 5 -15 32 2 32 8 0 17 -7 20 -16z m-388 -41 c-10 -10 -19 5 -10 18 6 11
8 11 12 0 2 -7 1 -15 -2 -18z m-406 -22 c0 -5 -7 -12 -16 -15 -14 -5 -15 -4
-4 9 14 17 20 19 20 6z m441 -94 c-8 -8 -11 -4 -11 14 0 33 14 47 18 19 2 -12
-1 -27 -7 -33z m84 -43 c-3 -19 -10 -34 -15 -34 -14 0 -12 27 3 68 14 41 22
19 12 -34z m-203 24 c-8 -8 -9 -4 -5 13 4 13 8 18 11 10 2 -7 -1 -18 -6 -23z
m118 -42 c0 -8 -4 -18 -10 -21 -5 -3 -10 3 -10 14 0 12 5 21 10 21 6 0 10 -6
10 -14z m-10 -70 c0 -3 -4 -8 -10 -11 -5 -3 -10 -1 -10 4 0 6 5 11 10 11 6 0
10 -2 10 -4z m-200 -10 c0 -3 -4 -8 -10 -11 -5 -3 -10 -1 -10 4 0 6 5 11 10
11 6 0 10 -2 10 -4z m319 -129 c23 -39 23 -39 2 -27 -12 6 -27 23 -33 38 -5
15 -14 35 -19 44 -5 10 -9 21 -8 25 0 9 24 -23 58 -80z m-89 32 c0 -5 -7 -9
-15 -9 -15 0 -20 12 -9 23 8 8 24 -1 24 -14z m230 -154 c-7 -9 -15 -13 -19
-10 -3 3 1 10 9 15 21 14 24 12 10 -5z m-970 -15 c0 -5 -5 -10 -11 -10 -5 0
-7 5 -4 10 3 6 8 10 11 10 2 0 4 -4 4 -10z m98 -72 c4 -34 -27 -54 -58 -38
-22 12 -23 14 -14 48 5 19 12 23 38 20 25 -2 32 -8 34 -30z m-187 -161 c-13
-13 -15 1 -4 30 7 17 8 17 11 -1 2 -10 -1 -23 -7 -29z m1086 -9 c-3 -8 -6 -5
-6 6 -1 11 2 17 5 13 3 -3 4 -12 1 -19z"/>
<path d="M5420 3268 c1 -17 89 -112 96 -105 9 8 -69 116 -83 117 -7 0 -13 -6
-13 -12z"/>
<path d="M5305 3250 c-3 -5 -1 -10 4 -10 6 0 11 5 11 10 0 6 -2 10 -4 10 -3 0
-8 -4 -11 -10z"/>
<path d="M2817 3220 c-10 -16 -14 -30 -8 -30 5 0 14 8 20 18 9 16 11 16 25 -3
12 -16 17 -18 28 -7 11 11 9 16 -12 32 -32 25 -33 25 -53 -10z"/>
<path d="M2859 3073 c-18 -4 -64 -82 -126 -213 -24 -52 -59 -125 -78 -161
l-34 -65 72 -39 c70 -37 156 -72 247 -100 71 -22 125 -43 182 -71 97 -47 140
-58 228 -58 67 0 101 5 160 26 44 15 111 29 163 33 78 7 87 6 87 -9 0 -13 5
-16 20 -11 25 8 65 -4 53 -16 -5 -5 -25 -10 -46 -11 -33 -3 -37 -6 -37 -30 0
-14 -4 -28 -10 -30 -5 -1 11 -3 36 -4 29 -1 41 2 32 8 -8 5 -3 6 13 2 27 -6
48 9 29 21 -8 5 -7 11 1 21 6 8 9 22 7 32 -5 17 2 19 65 21 39 1 74 4 79 7 4
3 25 0 45 -5 21 -5 63 -13 93 -16 l55 -7 17 84 c16 74 33 132 108 364 24 74
25 87 3 106 -19 16 -70 25 -196 33 -43 3 -87 10 -98 16 -14 7 -30 7 -52 0 -18
-5 -54 -12 -82 -16 -27 -4 -61 -13 -75 -20 -48 -23 -155 -38 -265 -36 -168 3
-217 10 -277 42 -20 11 -85 38 -144 60 -84 31 -123 41 -183 43 -42 1 -83 1
-92 -1z m131 -136 c0 -7 -4 -17 -9 -22 -8 -9 -29 -87 -46 -172 -9 -46 -28 -58
-65 -43 -16 7 -30 19 -30 26 0 8 15 54 34 102 18 48 36 95 39 105 8 21 77 25
77 4z m270 -57 c14 -11 33 -20 43 -20 20 0 22 -26 7 -82 -10 -35 -13 -37 -43
-31 -18 3 -36 10 -42 14 -5 5 -17 9 -26 9 -10 0 -21 5 -24 10 -7 12 40 120 52
120 4 0 19 -9 33 -20z m486 -65 c-25 -27 -26 -27 -26 -6 0 13 9 25 23 30 31
12 32 7 3 -24z m372 23 c6 -6 32 -10 57 -10 39 2 45 0 45 -19 0 -11 -5 -29
-11 -40 -8 -17 -17 -19 -57 -14 -67 8 -82 14 -82 33 0 14 -2 15 -10 2 -13 -21
-18 -10 -13 28 4 27 10 32 32 32 15 0 32 -5 39 -12z m-198 -135 c-6 -29 -16
-53 -21 -53 -6 0 -17 15 -25 33 -8 17 -20 40 -26 49 -11 15 -6 24 32 63 l45
46 3 -43 c2 -24 -1 -67 -8 -95z m-330 117 c0 -5 -4 -10 -9 -10 -4 0 -6 -11 -4
-24 4 -18 0 -25 -18 -29 -34 -9 -43 6 -25 42 16 29 56 45 56 21z m-414 -179
c21 -10 63 -22 92 -26 l54 -7 -6 -34 c-4 -18 -13 -49 -21 -68 -14 -33 -18 -35
-48 -30 -72 13 -187 60 -187 76 0 11 67 108 75 108 1 0 19 -8 41 -19z m607
-59 c20 -22 37 -45 37 -50 0 -5 -21 -12 -46 -16 -84 -11 -84 -11 -84 40 0 25
5 54 10 65 13 24 31 16 83 -39z m369 -2 c-4 -65 -40 -85 -106 -60 -22 8 -26
16 -26 47 0 46 23 62 90 60 l45 -2 -3 -45z m-592 4 c5 -13 5 -37 -1 -56 -8
-30 -16 -36 -61 -51 -28 -9 -55 -14 -59 -11 -5 3 -1 20 8 39 9 19 20 32 25 28
5 -3 16 4 24 16 8 12 22 21 30 21 8 0 14 5 14 10 0 16 -40 12 -46 -5 -8 -19
-24 -9 -24 15 0 36 76 32 90 -6z"/>
<path d="M4085 2800 c18 -20 45 -27 45 -12 0 15 -24 32 -44 32 -18 0 -19 -1
-1 -20z"/>
<path d="M2710 2910 c-13 -8 -12 -10 3 -10 9 0 17 5 17 10 0 12 -1 12 -20 0z"/>
<path d="M2631 2810 c-24 -43 -17 -54 13 -17 10 12 26 30 34 40 14 15 13 17
-5 17 -12 0 -27 -14 -42 -40z"/>
<path d="M4734 2829 c-7 -9 -9 -35 -4 -74 4 -33 5 -75 2 -92 -3 -19 0 -33 6
-33 14 0 21 22 15 52 -3 14 0 41 5 61 5 19 6 39 2 44 -5 4 -10 19 -12 32 -2
20 -5 22 -14 10z"/>
<path d="M5680 2830 c0 -5 5 -10 10 -10 6 0 10 5 10 10 0 6 -4 10 -10 10 -5 0
-10 -4 -10 -10z"/>
<path d="M4846 2821 c-4 -7 -5 -15 -2 -18 9 -9 19 4 14 18 -4 11 -6 11 -12 0z"/>
<path d="M4810 2793 c-7 -114 -3 -141 16 -112 5 8 10 6 16 -5 5 -9 13 -16 17
-16 13 0 22 43 11 54 -5 5 -4 16 3 27 13 21 4 34 -18 25 -11 -4 -14 -13 -9
-30 3 -13 1 -27 -5 -30 -7 -5 -11 8 -11 38 0 25 -4 48 -10 51 -5 3 -10 3 -10
-2z"/>
<path d="M5700 2769 c0 -5 5 -7 10 -4 6 3 10 8 10 11 0 2 -4 4 -10 4 -5 0 -10
-5 -10 -11z"/>
<path d="M2594 2745 c-4 -11 -12 -23 -17 -26 -5 -4 -7 -15 -4 -25 4 -17 5 -17
12 3 4 12 13 23 20 25 8 2 10 10 5 23 l-8 20 -8 -20z"/>
<path d="M2550 2659 c0 -5 5 -7 10 -4 6 3 10 8 10 11 0 2 -4 4 -10 4 -5 0 -10
-5 -10 -11z"/>
<path d="M4810 2638 c0 -7 5 -20 10 -28 8 -12 10 -9 10 13 0 15 -4 27 -10 27
-5 0 -10 -6 -10 -12z"/>
<path d="M4729 2608 c-1 -2 -3 -59 -4 -127 -2 -112 8 -201 22 -188 4 4 7 236
4 305 -1 10 -18 18 -22 10z"/>
<path d="M4817 2567 c-10 -26 -9 -67 2 -67 13 0 18 22 11 55 -5 25 -7 27 -13
12z"/>
<path d="M5065 2520 c-3 -5 -1 -10 4 -10 6 0 11 5 11 10 0 6 -2 10 -4 10 -3 0
-8 -4 -11 -10z"/>
<path d="M5112 2510 c0 -14 2 -19 5 -12 2 6 2 18 0 25 -3 6 -5 1 -5 -13z"/>
<path d="M4810 2466 c0 -9 5 -16 10 -16 6 0 10 4 10 9 0 6 -4 13 -10 16 -5 3
-10 -1 -10 -9z"/>
<path d="M5095 2450 c-3 -5 1 -10 9 -10 9 0 16 5 16 10 0 6 -4 10 -9 10 -6 0
-13 -4 -16 -10z"/>
<path d="M3936 2371 c-4 -7 -5 -15 -2 -18 9 -9 19 4 14 18 -4 11 -6 11 -12 0z"/>
<path d="M3730 2275 c-10 -12 -15 -13 -20 -4 -4 6 -13 8 -19 5 -14 -9 -15 -46
-1 -46 13 0 13 -27 0 -35 -6 -4 -17 -1 -25 5 -12 10 -16 9 -20 -6 -3 -11 -15
-36 -25 -56 -24 -44 -25 -68 -5 -68 9 0 12 6 9 15 -6 16 12 45 27 45 17 0 9
-59 -9 -72 -17 -12 -39 -68 -27 -68 8 0 45 34 45 42 0 4 11 19 25 34 24 26 30
57 11 54 -12 -2 -26 21 -26 43 0 23 23 22 45 -3 26 -29 40 -10 24 33 -11 30
-10 37 4 52 18 17 23 45 8 45 -5 0 -14 -7 -21 -15z"/>
<path d="M3780 2275 c-10 -13 -9 -15 9 -15 12 0 21 6 21 15 0 8 -4 15 -9 15
-5 0 -14 -7 -21 -15z"/>
<path d="M1940 2260 c-13 -9 -11 -13 10 -29 21 -17 22 -21 10 -36 -12 -14 -11
-16 13 -13 37 5 43 15 23 36 -9 9 -22 25 -29 34 -9 13 -16 15 -27 8z"/>
<path d="M5950 2246 c0 -9 5 -16 10 -16 6 0 10 4 10 9 0 6 -4 13 -10 16 -5 3
-10 -1 -10 -9z"/>
<path d="M5875 2241 c-3 -5 -1 -12 5 -16 5 -3 10 1 10 9 0 18 -6 21 -15 7z"/>
<path d="M1876 2225 c-4 -12 -1 -16 14 -13 24 3 28 22 7 26 -8 2 -17 -4 -21
-13z"/>
<path d="M3300 2185 c0 -8 5 -15 10 -15 6 0 10 7 10 15 0 8 -4 15 -10 15 -5 0
-10 -7 -10 -15z"/>
<path d="M3280 2138 c0 -19 2 -20 10 -8 13 19 13 30 0 30 -5 0 -10 -10 -10
-22z"/>
<path d="M3238 2106 c-10 -7 -25 -29 -33 -50 -8 -20 -20 -36 -25 -36 -6 0 -10
-12 -10 -27 l1 -28 24 30 c14 17 25 35 25 41 0 6 11 23 25 38 37 40 32 62 -7
32z"/>
<path d="M1692 2073 c-17 -12 -25 -13 -36 -3 -13 10 -13 8 -3 -14 11 -24 37
-36 37 -18 0 5 9 13 20 18 11 5 16 14 12 20 -5 8 -13 7 -30 -3z"/>
<path d="M3565 2082 c-6 -4 -16 -20 -24 -37 -35 -78 -124 -204 -143 -205 -10
0 -18 -7 -18 -15 0 -17 17 -20 22 -5 2 6 12 12 24 12 13 1 26 16 39 44 10 24
27 45 37 47 12 4 18 15 18 36 0 21 5 31 15 31 10 0 15 -11 15 -35 0 -19 4 -35
9 -35 22 0 29 78 9 99 -11 10 -10 15 5 25 9 7 17 21 17 30 0 17 -9 20 -25 8z"/>
<path d="M5990 2056 c0 -8 4 -17 9 -20 5 -4 7 3 4 14 -6 23 -13 26 -13 6z"/>
<path d="M1605 2020 c-8 -14 -7 -15 23 -25 20 -6 23 -4 20 11 -4 22 -33 31
-43 14z"/>
<path d="M6180 1998 c0 -9 5 -20 11 -23 17 -11 20 0 4 21 -13 17 -14 17 -15 2z"/>
<path d="M1540 1990 c0 -5 5 -10 11 -10 5 0 7 5 4 10 -3 6 -8 10 -11 10 -2 0
-4 -4 -4 -10z"/>
<path d="M1428 1959 c-10 -5 -23 -19 -28 -30 -10 -18 -9 -19 17 -13 35 8 73
31 73 44 0 13 -40 12 -62 -1z"/>
<path d="M6220 1945 c7 -9 15 -13 17 -11 7 7 -7 26 -19 26 -6 0 -6 -6 2 -15z"/>
<path d="M898 1905 c-20 -14 -41 -25 -45 -25 -5 0 -27 -13 -49 -29 -21 -15
-77 -48 -124 -73 -47 -24 -101 -54 -121 -65 -19 -11 -80 -44 -135 -73 -101
-54 -151 -81 -239 -131 -27 -16 -80 -45 -117 -65 -47 -25 -68 -42 -68 -55 0
-16 7 -14 54 16 29 18 75 46 102 61 103 57 141 77 199 109 33 18 101 55 150
82 50 28 106 58 125 69 19 10 37 22 38 27 2 4 8 7 13 7 13 0 209 118 242 146
37 31 21 31 -25 -1z"/>
<path d="M6240 1911 c0 -5 14 -16 30 -25 34 -16 40 -8 12 17 -20 19 -42 22
-42 8z"/>
<path d="M3355 1760 c-5 -5 -20 -18 -32 -29 -23 -21 -32 -71 -13 -71 10 0 12
7 14 45 1 12 7 19 16 17 14 -3 40 23 40 40 0 10 -12 9 -25 -2z"/>
<path d="M3427 1755 c3 -8 9 -12 14 -9 12 7 11 11 -5 17 -10 4 -13 1 -9 -8z"/>
<path d="M3255 1640 c-3 -5 -4 -14 0 -20 8 -13 35 -1 35 16 0 16 -26 19 -35 4z"/>
<path d="M3220 1574 c0 -8 5 -12 10 -9 6 3 10 10 10 16 0 5 -4 9 -10 9 -5 0
-10 -7 -10 -16z"/>
<path d="M2730 1418 c0 -19 2 -20 10 -8 13 19 13 30 0 30 -5 0 -10 -10 -10
-22z"/>
<path d="M2655 1340 c-3 -5 -1 -10 4 -10 6 0 11 5 11 10 0 6 -2 10 -4 10 -3 0
-8 -4 -11 -10z"/>
<path d="M2582 1223 c2 -10 10 -18 18 -18 8 0 16 8 18 18 2 12 -3 17 -18 17
-15 0 -20 -5 -18 -17z"/>
<path d="M2600 1155 c0 -16 27 -32 37 -21 7 7 -16 36 -28 36 -5 0 -9 -7 -9
-15z"/>
<path d="M2897 1059 c14 -14 49 -34 93 -54 19 -9 43 -20 52 -25 21 -12 48 -13
48 -2 0 7 -96 55 -115 57 -5 1 -24 9 -42 18 -37 20 -52 22 -36 6z"/>
<path d="M2775 980 c4 -6 11 -8 16 -5 14 9 11 15 -7 15 -8 0 -12 -5 -9 -10z"/>
<path d="M3140 981 c-35 -10 -33 -42 4 -52 41 -11 86 -1 79 18 -4 9 -15 13
-30 10 -19 -4 -22 -1 -18 14 7 20 4 21 -35 10z"/>
<path d="M2556 945 c-6 -18 -1 -20 49 -30 32 -5 36 -9 22 -16 -28 -16 -22 -42
8 -37 14 3 28 1 31 -3 3 -5 25 -9 49 -9 24 0 47 -4 50 -10 10 -16 38 -12 32 4
-8 20 12 25 46 13 20 -6 32 -6 40 2 8 8 7 11 -6 11 -21 0 -60 37 -52 50 4 6 0
10 -8 10 -8 0 -18 -11 -21 -25 -4 -14 -14 -25 -22 -25 -13 0 -15 7 -10 30 5
25 2 30 -15 30 -11 0 -22 -7 -25 -15 -5 -12 -11 -11 -41 5 -19 10 -41 16 -49
13 -8 -3 -27 0 -43 5 -23 8 -31 7 -35 -3z"/>
<path d="M4105 930 c-3 -5 -1 -10 4 -10 6 0 11 5 11 10 0 6 -2 10 -4 10 -3 0
-8 -4 -11 -10z"/>
<path d="M3040 910 c0 -5 7 -10 15 -10 8 0 15 5 15 10 0 6 -7 10 -15 10 -8 0
-15 -4 -15 -10z"/>
<path d="M3050 856 c0 -2 9 -6 20 -9 11 -3 20 -1 20 4 0 5 -9 9 -20 9 -11 0
-20 -2 -20 -4z"/>
<path d="M6250 415 c0 -72 -3 -140 -6 -152 -4 -13 -2 -23 3 -23 13 0 24 270
13 290 -6 9 -10 -34 -10 -115z"/>
<path d="M6236 189 c-3 -19 -10 -61 -16 -93 -12 -72 -13 -96 -2 -96 10 0 38
208 29 216 -3 3 -8 -9 -11 -27z"/>
</g>
</svg>
